<?xml version="1.0" standalone="no"?>
<!DOCTYPE svg PUBLIC "-//W3C//DTD SVG 20010904//EN"
 "http://www.w3.org/TR/2001/REC-SVG-20010904/DTD/svg10.dtd">
<svg version="1.0" xmlns="http://www.w3.org/2000/svg"
 width="700.000000pt" height="700.000000pt" viewBox="0 0 700.000000 700.000000"
 preserveAspectRatio="xMidYMid meet">
<metadata>
Created by potrace 1.14, written by Peter Selinger 2001-2017
</metadata>
<g transform="translate(0.000000,700.000000) scale(0.100000,-0.100000)"
fill="#000000" stroke="none">
<path d="M3485 6988 c-148 -32 -290 -129 -370 -253 -92 -143 -94 -162 -95
-714 0 -256 -2 -466 -4 -468 -2 -2 -21 -5 -42 -8 -363 -39 -625 -98 -964 -217
-269 -94 -694 -301 -752 -365 -50 -55 -55 -141 -12 -206 14 -21 24 -40 22 -42
-2 -2 -25 -15 -52 -29 -70 -37 -228 -144 -311 -211 -251 -201 -487 -513 -603
-795 -13 -30 -27 -64 -32 -75 -57 -131 -121 -391 -154 -625 -19 -137 -26 -452
-12 -590 11 -113 43 -302 67 -388 160 -579 541 -1071 1101 -1422 91 -57 372
-204 453 -237 175 -72 221 -90 228 -91 4 0 58 -17 120 -37 61 -19 126 -40 142
-45 111 -33 422 -100 540 -114 22 -3 72 -10 110 -15 39 -6 104 -13 145 -16 41
-4 89 -9 105 -11 56 -9 610 -11 715 -3 171 13 305 27 375 39 28 5 71 11 96 15
60 8 187 32 309 60 169 38 483 141 655 214 853 367 1412 987 1586 1761 11 47
22 103 25 125 3 22 7 51 10 65 23 141 22 506 -2 675 -2 17 -6 46 -8 65 -46
382 -199 771 -422 1072 -160 217 -421 445 -659 578 -33 18 -62 35 -64 36 -2 2
6 15 18 30 45 57 45 143 0 205 -47 67 -462 272 -776 383 -118 42 -382 117
-498 141 -44 9 -98 20 -120 25 -22 5 -62 12 -90 15 -27 4 -57 8 -65 10 -8 2
-46 7 -85 11 -38 4 -79 8 -90 9 -11 1 -26 3 -32 4 -10 1 -13 59 -13 256 l0
255 38 1 c175 4 241 9 265 18 40 16 84 65 98 110 22 75 16 89 -189 386 -31 44
-96 139 -145 210 -110 160 -141 193 -189 206 -45 12 -315 10 -373 -3z m248
-341 c3 -7 33 -53 66 -101 34 -48 62 -92 64 -98 1 -7 -23 -12 -63 -14 -139 -7
-239 -66 -273 -160 -15 -44 -17 -100 -17 -589 0 -344 -4 -554 -11 -578 -14
-51 -70 -104 -120 -112 -13 -2 -67 -6 -120 -9 -81 -4 -257 -26 -324 -40 -120
-26 -185 -41 -265 -62 -104 -28 -380 -119 -420 -139 -20 -11 -40 -10 -105 1
-169 29 -396 98 -378 114 16 16 281 123 423 170 182 62 384 114 525 136 22 3
42 7 45 9 3 2 33 7 65 10 33 4 68 9 77 10 28 6 138 15 232 20 50 3 99 8 110
11 41 13 79 48 97 88 17 39 18 80 18 576 0 352 3 551 10 583 20 85 79 156 149
177 47 14 209 12 215 -3z m-1978 -2153 c44 -14 87 -28 95 -31 10 -3 -5 -15
-40 -32 -155 -77 -275 -161 -439 -306 -122 -108 -288 -337 -377 -521 -48 -99
-121 -298 -140 -382 -89 -396 -92 -789 -9 -1116 43 -170 147 -419 206 -495 10
-13 19 -29 19 -37 0 -7 3 -14 8 -16 4 -1 25 -30 47 -62 22 -33 44 -64 50 -70
5 -6 30 -36 55 -66 217 -267 554 -514 940 -688 184 -83 484 -183 655 -218 42
-9 62 -13 130 -27 39 -9 88 -18 110 -21 22 -4 51 -8 65 -11 126 -20 220 -31
360 -41 152 -12 99 -16 -115 -10 -204 5 -249 8 -365 22 -30 3 -66 7 -80 9
-295 30 -663 121 -980 242 -142 55 -420 198 -551 285 -358 237 -620 527 -779
862 -95 199 -146 378 -176 616 -19 147 -6 481 25 655 6 33 12 71 15 85 2 14
16 72 31 130 149 569 522 1002 1065 1237 41 18 79 32 85 33 5 0 46 -12 90 -26z
m1862 -4150 c-3 -3 -12 -4 -19 -1 -8 3 -5 6 6 6 11 1 17 -2 13 -5z"/>
</g>
</svg>
